<svg width="7504" height="2785" viewBox="0 0 7504 2785" fill="none" xmlns="http://www.w3.org/2000/svg">
<path d="M3319.62 1581.99V876.012H3503.75V1581.99H3319.62Z" fill="#0D2C99"/>
<path d="M4146.73 876.012H4332.87L4011.64 1581.99H3865.53L3544.3 876.012H3735.44L3940.59 1352.67L4146.73 876.012Z" fill="#0D2C99"/>
<path d="M4840.13 1581.99L4777.08 1435.79H4464.86L4401.81 1581.99H4216.68L4545.92 876.012H4692.02L5022.26 1581.99H4840.13ZM4523.9 1297.59H4718.04L4620.97 1071.28L4523.9 1297.59Z" fill="#0D2C99"/>
<path d="M5380.7 1591C5308.65 1591 5245.94 1576.31 5192.57 1546.94C5139.86 1516.9 5099.17 1474.84 5070.48 1420.76C5041.79 1366.02 5027.45 1301.93 5027.45 1228.5C5027.45 1155.06 5041.79 1091.31 5070.48 1037.24C5099.17 982.493 5139.86 940.435 5192.57 911.061C5245.94 881.687 5308.65 867 5380.7 867C5452.75 867 5515.13 881.687 5567.83 911.061C5621.2 940.435 5661.9 982.493 5689.92 1037.24C5718.61 1091.31 5732.95 1155.06 5732.95 1228.5C5732.95 1301.93 5718.61 1366.02 5689.92 1420.76C5661.23 1474.84 5620.2 1516.9 5566.83 1546.94C5514.13 1576.31 5452.08 1591 5380.7 1591ZM5380.7 1449.81C5434.07 1449.81 5475.77 1431.11 5505.79 1393.73C5535.81 1355.68 5550.82 1300.6 5550.82 1228.5C5550.82 1156.4 5535.48 1101.66 5504.79 1064.27C5474.77 1026.89 5433.4 1008.2 5380.7 1008.2C5327.33 1008.2 5285.63 1026.89 5255.61 1064.27C5225.59 1100.99 5210.58 1155.73 5210.58 1228.5C5210.58 1301.27 5225.59 1356.34 5255.61 1393.73C5285.63 1431.11 5327.33 1449.81 5380.7 1449.81Z" fill="#0D2C99"/>
<path d="M3500.85 1975.91C3515.65 1980.03 3527.05 1987.43 3535.06 1998.11C3543.31 2008.78 3547.43 2022.12 3547.43 2038.13C3547.43 2060.21 3539.79 2077.43 3524.51 2089.81C3509.47 2101.94 3488.36 2108 3461.19 2108H3349.84V1851.46H3457.19C3483.63 1851.46 3504.25 1857.4 3519.05 1869.29C3534.09 1880.93 3541.61 1897.31 3541.61 1918.41C3541.61 1932 3537.97 1943.76 3530.69 1953.71C3523.66 1963.66 3513.71 1971.06 3500.85 1975.91ZM3386.59 1962.44H3451.36C3487.27 1962.44 3505.22 1948.86 3505.22 1921.69C3505.22 1908.1 3500.73 1898.04 3491.76 1891.49C3483.02 1884.94 3469.56 1881.66 3451.36 1881.66H3386.59V1962.44ZM3457.19 2077.8C3475.87 2077.8 3489.57 2074.4 3498.31 2067.61C3507.04 2060.82 3511.41 2050.26 3511.41 2035.95C3511.41 2021.39 3506.92 2010.6 3497.94 2003.56C3489.21 1996.29 3475.62 1992.65 3457.19 1992.65H3386.59V2077.8H3457.19ZM3804.6 2108H3763.12L3719.45 2025.76C3714.6 2017.03 3708.78 2010.96 3701.99 2007.57C3695.44 2003.93 3686.7 2002.11 3675.79 2002.11H3633.58V2108H3596.46V1851.46H3705.63C3734.01 1851.46 3755.6 1857.76 3770.4 1870.38C3785.44 1882.99 3792.96 1901.43 3792.96 1925.69C3792.96 1945.34 3787.38 1961.47 3776.22 1974.09C3765.3 1986.7 3749.66 1994.71 3729.28 1998.11C3741.89 2001.99 3752.33 2011.45 3760.57 2026.49L3804.6 2108ZM3701.26 1971.91C3720.18 1971.91 3734.13 1968.27 3743.11 1960.99C3752.33 1953.47 3756.94 1941.94 3756.94 1926.42C3756.94 1910.89 3752.45 1899.61 3743.47 1892.58C3734.5 1885.3 3720.42 1881.66 3701.26 1881.66H3633.21V1971.91H3701.26ZM4041.35 2108L4014.06 2044.68H3884.15L3856.86 2108H3819.01L3933.27 1851.46H3964.57L4078.83 2108H4041.35ZM3896.89 2014.84H4001.32L3949.29 1893.3L3896.89 2014.84ZM4138.37 2077.43H4282.47V2108H4095.79V2080.34L4235.89 1882.02H4095.79V1851.46H4278.83V1878.75L4138.37 2077.43ZM4325.31 2108V1851.46H4362.79V2108H4325.31ZM4422.32 2108V1851.46H4459.8V2076.71H4584.25V2108H4422.32Z" fill="#0D2C99"/>
<mask id="mask0" mask-type="alpha" maskUnits="userSpaceOnUse" x="2275" y="1538" width="569" height="570">
<path d="M2559.5 2108C2402.8 2108 2275 1979.97 2275 1823C2275 1666.03 2402.8 1538 2559.5 1538C2716.2 1538 2844 1666.03 2844 1823C2844 1979.97 2716.2 2108 2559.5 2108Z" fill="white"/>
</mask>
<g mask="url(#mask0)">
<path d="M2966.45 2107.07H2151.55C2143.52 2107.07 2137 2100.36 2137 2092.09V1552.98C2137 1544.71 2143.52 1538 2151.55 1538H2966.45C2974.48 1538 2981 1544.71 2981 1552.98V2092.09C2981 2100.36 2974.48 2107.07 2966.45 2107.07Z" fill="#0E9F44"/>
<path d="M2551.43 1617.62L2244.73 1809.74C2235.42 1815.57 2235.42 1829.49 2244.73 1835.32L2551.43 2027.45C2556.08 2030.36 2561.92 2030.36 2566.57 2027.45L2873.27 1835.33C2882.58 1829.49 2882.58 1815.58 2873.27 1809.74L2566.57 1617.62C2561.92 1614.71 2556.08 1614.71 2551.43 1617.62Z" fill="#FFE421"/>
<path d="M2559 1942.34C2623.29 1942.34 2675.41 1888.7 2675.41 1822.53C2675.41 1756.37 2623.29 1702.73 2559 1702.73C2494.71 1702.73 2442.59 1756.37 2442.59 1822.53C2442.59 1888.7 2494.71 1942.34 2559 1942.34Z" fill="#1F388F"/>
<path d="M2459.11 1761.25C2453.61 1770.71 2449.37 1780.99 2446.57 1791.91C2511.1 1786.92 2606.57 1805.49 2667.33 1866.17C2671.3 1855.75 2673.91 1844.66 2674.9 1833.05C2612.16 1778.71 2525.42 1759.39 2459.11 1761.25Z" fill="#F5F5F5"/>
<path d="M2563.82 1863.42L2566.92 1872.98L2576.72 1873.06C2577.98 1873.07 2578.51 1874.73 2577.49 1875.51L2569.61 1881.5L2572.57 1891.11C2572.95 1892.36 2571.57 1893.39 2570.54 1892.63L2562.57 1886.76L2554.6 1892.63C2553.57 1893.39 2552.19 1892.36 2552.57 1891.11L2555.53 1881.5L2547.65 1875.51C2546.63 1874.73 2547.15 1873.07 2548.42 1873.06L2558.22 1872.98L2561.32 1863.42C2561.72 1862.18 2563.42 1862.18 2563.82 1863.42Z" fill="#F5F5F5"/>
<path d="M2601.9 1888.16L2603.23 1892.27L2607.45 1892.31C2607.99 1892.31 2608.22 1893.03 2607.78 1893.36L2604.39 1895.94L2605.66 1900.08C2605.82 1900.61 2605.23 1901.06 2604.79 1900.73L2601.36 1898.21L2597.93 1900.73C2597.48 1901.06 2596.89 1900.61 2597.05 1900.08L2598.33 1895.94L2594.93 1893.36C2594.49 1893.03 2594.72 1892.31 2595.27 1892.31L2599.48 1892.27L2600.82 1888.16C2600.99 1887.62 2601.72 1887.62 2601.9 1888.16Z" fill="#F5F5F5"/>
<path d="M2547.36 1845.25L2548.69 1849.36L2552.91 1849.4C2553.45 1849.4 2553.68 1850.12 2553.24 1850.45L2549.85 1853.03L2551.12 1857.17C2551.28 1857.7 2550.69 1858.15 2550.25 1857.82L2546.82 1855.3L2543.39 1857.82C2542.94 1858.15 2542.35 1857.7 2542.51 1857.17L2543.79 1853.03L2540.39 1850.45C2539.95 1850.12 2540.18 1849.4 2540.73 1849.4L2544.94 1849.36L2546.28 1845.25C2546.45 1844.71 2547.18 1844.71 2547.36 1845.25Z" fill="#F5F5F5"/>
<path d="M2473.49 1840.26L2474.83 1844.37L2479.05 1844.41C2479.59 1844.41 2479.82 1845.13 2479.38 1845.46L2475.99 1848.04L2477.26 1852.18C2477.42 1852.71 2476.83 1853.15 2476.38 1852.83L2472.95 1850.3L2469.52 1852.83C2469.08 1853.15 2468.49 1852.71 2468.65 1852.18L2469.92 1848.04L2466.53 1845.46C2466.09 1845.13 2466.32 1844.41 2466.86 1844.41L2471.08 1844.37L2472.41 1840.26C2472.59 1839.72 2473.32 1839.72 2473.49 1840.26Z" fill="#F5F5F5"/>
<path d="M2535.28 1886.74L2536.62 1890.85L2540.83 1890.89C2541.38 1890.89 2541.61 1891.61 2541.17 1891.94L2537.78 1894.52L2539.05 1898.66C2539.21 1899.19 2538.62 1899.63 2538.17 1899.31L2534.74 1896.78L2531.31 1899.31C2530.87 1899.63 2530.28 1899.19 2530.44 1898.66L2531.71 1894.52L2528.32 1891.94C2527.88 1891.61 2528.11 1890.89 2528.65 1890.89L2532.87 1890.85L2534.2 1886.74C2534.38 1886.21 2535.11 1886.21 2535.28 1886.74Z" fill="#F5F5F5"/>
<path d="M2501.29 1837.38L2502.38 1840.75L2505.83 1840.78C2506.27 1840.78 2506.46 1841.37 2506.1 1841.64L2503.33 1843.75L2504.37 1847.13C2504.5 1847.57 2504.02 1847.93 2503.65 1847.66L2500.85 1845.6L2498.04 1847.66C2497.68 1847.93 2497.19 1847.57 2497.33 1847.13L2498.37 1843.75L2495.59 1841.64C2495.24 1841.37 2495.42 1840.78 2495.87 1840.78L2499.32 1840.75L2500.41 1837.38C2500.55 1836.95 2501.15 1836.95 2501.29 1837.38Z" fill="#F5F5F5"/>
<path d="M2604.86 1767.9L2606.22 1772.11L2610.53 1772.14C2611.09 1772.14 2611.32 1772.88 2610.87 1773.22L2607.41 1775.86L2608.71 1780.09C2608.88 1780.64 2608.27 1781.09 2607.81 1780.76L2604.3 1778.17L2600.79 1780.76C2600.34 1781.09 2599.74 1780.64 2599.9 1780.09L2601.2 1775.86L2597.74 1773.22C2597.29 1772.88 2597.52 1772.15 2598.08 1772.14L2602.39 1772.11L2603.75 1767.9C2603.93 1767.35 2604.68 1767.35 2604.86 1767.9Z" fill="#F5F5F5"/>
<path d="M2478.25 1816.79L2479.34 1820.16L2482.79 1820.19C2483.23 1820.19 2483.42 1820.78 2483.06 1821.05L2480.29 1823.16L2481.33 1826.54C2481.46 1826.98 2480.98 1827.34 2480.61 1827.07L2477.81 1825.01L2475 1827.07C2474.64 1827.34 2474.15 1826.98 2474.29 1826.54L2475.33 1823.16L2472.55 1821.05C2472.19 1820.78 2472.38 1820.19 2472.83 1820.19L2476.27 1820.16L2477.37 1816.79C2477.51 1816.36 2478.1 1816.36 2478.25 1816.79Z" fill="#F5F5F5"/>
<path d="M2494.9 1864.23L2496.55 1869.33L2501.77 1869.37C2502.44 1869.38 2502.73 1870.26 2502.18 1870.68L2497.98 1873.87L2499.56 1878.99C2499.76 1879.66 2499.03 1880.21 2498.48 1879.8L2494.23 1876.68L2489.98 1879.8C2489.43 1880.21 2488.69 1879.66 2488.9 1878.99L2490.47 1873.87L2486.27 1870.68C2485.73 1870.26 2486.01 1869.38 2486.68 1869.37L2491.9 1869.33L2493.56 1864.23C2493.78 1863.57 2494.68 1863.57 2494.9 1864.23Z" fill="#F5F5F5"/>
<path d="M2623.13 1889.23L2624.17 1892.43L2627.45 1892.46C2627.88 1892.46 2628.05 1893.02 2627.71 1893.28L2625.07 1895.29L2626.06 1898.51C2626.19 1898.93 2625.73 1899.27 2625.38 1899.02L2622.71 1897.05L2620.03 1899.02C2619.69 1899.27 2619.23 1898.93 2619.35 1898.51L2620.34 1895.29L2617.7 1893.28C2617.36 1893.02 2617.54 1892.46 2617.96 1892.46L2621.25 1892.43L2622.29 1889.23C2622.42 1888.81 2622.99 1888.81 2623.13 1889.23Z" fill="#F5F5F5"/>
<path d="M2634.62 1864.75L2635.96 1868.86L2640.18 1868.9C2640.72 1868.9 2640.95 1869.62 2640.51 1869.95L2637.12 1872.53L2638.39 1876.67C2638.55 1877.2 2637.96 1877.65 2637.51 1877.32L2634.08 1874.8L2630.65 1877.32C2630.21 1877.65 2629.62 1877.2 2629.78 1876.67L2631.05 1872.53L2627.66 1869.95C2627.22 1869.62 2627.45 1868.9 2627.99 1868.9L2632.21 1868.86L2633.54 1864.75C2633.72 1864.21 2634.45 1864.21 2634.62 1864.75Z" fill="#F5F5F5"/>
<path d="M2559.48 1548.92C2709.92 1548.92 2833.1 1672.31 2833.1 1823C2833.1 1973.69 2709.92 2097.08 2559.48 2097.08C2409.04 2097.08 2285.86 1973.69 2285.86 1823C2285.86 1672.31 2409.04 1548.92 2559.48 1548.92ZM2559.48 1538C2402.5 1538 2274.96 1665.76 2274.96 1823C2274.96 1980.24 2402.5 2108 2559.48 2108C2716.46 2108 2844 1980.24 2844 1823C2844 1665.76 2716.46 1538 2559.48 1538Z" fill="#0D2C99"/>
</g>
<path fill-rule="evenodd" clip-rule="evenodd" d="M2165.52 1426.47C2165.25 1426.43 2130.14 1421.97 2126.02 1421.79C2125.62 1421.77 2125.13 1421.75 2124.57 1421.73C2121.37 1421.6 2115.91 1421.38 2111.93 1421.12C2109.17 1420.94 2106 1418.62 2105.89 1415.86C2105.83 1414.45 2105.81 1412.83 2105.8 1411.17C2105.79 1409.73 2105.77 1408.25 2105.73 1406.86C2105.73 1400.78 2106.4 1390.84 2106.77 1388.54C2106.8 1388.4 2106.86 1388.22 2106.94 1388.09C2107.18 1387.72 2107.59 1387.61 2108.03 1387.61H2115.79C2117 1387.61 2117.04 1390.63 2116.88 1392.46C2116.87 1392.58 2116.86 1392.7 2116.86 1392.83C2116.82 1394.47 2116.51 1406.8 2116.51 1408.48C2116.51 1410.27 2119.92 1411.71 2124.23 1411.53C2128.5 1411.36 2165.54 1409.24 2166.23 1409.2C2166.26 1409.19 2166.23 1409.2 2166.25 1409.2C2166.95 1409.16 2243.67 1405.78 2251.71 1405.42C2259.79 1405.06 2261.05 1393.18 2260.87 1384.01C2260.76 1378.31 2259.53 1372.74 2258.63 1369.35C2258.09 1367.33 2256.25 1365.99 2254.16 1365.94L2244.82 1365.72C2243.39 1365.69 2242.28 1364.47 2242.38 1363.05C2242.48 1361.7 2243.63 1360.67 2244.98 1360.73L2268.06 1361.71C2270.37 1361.81 2272.23 1363.55 2273.36 1365.57C2274.18 1367.03 2275.42 1368.36 2277.21 1368.36C2278.32 1368.36 2279.12 1367.88 2279.7 1367.21C2279.81 1367.07 2279.92 1366.94 2280.04 1366.8C2281.74 1364.77 2283.64 1362.51 2286.24 1362.61C2288.91 1362.7 2291 1364.91 2290.96 1367.57C2290.89 1371.98 2290.78 1378.29 2290.67 1381.49C2290.67 1386.89 2293.01 1391.93 2296.42 1392.11C2297.8 1392.17 2298.8 1391.56 2299.52 1390.73C2301.22 1388.76 2303.27 1386.61 2305.87 1386.72L2313.71 1387.05C2316.39 1387.16 2318.4 1389.44 2319.33 1391.95C2319.99 1393.73 2321.19 1395.34 2323.35 1395.34C2325.55 1395.51 2326.89 1393.94 2327.71 1392.18C2328.83 1389.76 2331 1387.68 2333.66 1387.78L2384.26 1389.6C2385.98 1389.66 2387.28 1390.88 2388.6 1392.1C2389.28 1392.74 2389.96 1393.38 2390.71 1393.86C2391.1 1394.11 2391.56 1394.26 2392.12 1394.26C2393.14 1394.26 2393.99 1393.8 2394.65 1393.18C2396.25 1391.7 2398.09 1390.17 2400.27 1390.23L2420.49 1390.78C2421.97 1390.82 2423.39 1390.2 2424.37 1389.1L2424.77 1388.65C2426.71 1386.45 2430.14 1386.38 2432.37 1388.3C2435.67 1391.14 2440.37 1394.55 2443.83 1394.44C2449.76 1394.44 2459.46 1386.35 2463.23 1377.89C2464.9 1374.15 2465.83 1370.9 2466.34 1368.44C2466.91 1365.74 2469.19 1363.49 2471.95 1363.49C2494.98 1363.42 2590.91 1363.14 2600.23 1363.14C2610.82 1362.96 2611.9 1335.62 2611.18 1337.42C2610.76 1338.47 2609.41 1342.06 2608.37 1344.84C2607.59 1346.94 2605.51 1348.26 2603.28 1348.08L2459.08 1336.36C2457.51 1336.23 2456.09 1335.36 2455.02 1334.2C2452.87 1331.86 2448.46 1328.19 2441.68 1327.7C2435.3 1327.24 2430.8 1330.05 2428.36 1332.16C2426.94 1333.39 2425.07 1334.17 2423.21 1333.87L2300.68 1314.07C2299.13 1313.82 2297.79 1312.85 2296.87 1311.57C2294.15 1307.81 2287.25 1300.27 2275.41 1300C2268.46 1299.72 2264.5 1301.5 2262.29 1303.34C2260.28 1305 2257.55 1306.65 2254.99 1306.2C2127.88 1283.64 2115.16 1270.21 2113.94 1268.23C2113.83 1268.06 2113.8 1267.89 2113.78 1267.69C2113.55 1265.38 2112.02 1249.32 2112.02 1225.88C2112.02 1131.79 2072.34 1078 2056.36 1078C2056.3 1078 2056.24 1078.01 2056.18 1078.02C2056.12 1078.01 2056.06 1078 2056 1078C2040.02 1078 2000.34 1131.79 2000.34 1225.88C2000.34 1249.32 1998.8 1265.38 1998.57 1267.69C1998.55 1267.89 1998.52 1268.06 1998.42 1268.23C1997.2 1270.21 1984.47 1283.64 1857.37 1306.2C1854.81 1306.65 1852.07 1305 1850.07 1303.34C1847.85 1301.5 1843.9 1299.73 1836.94 1300C1825.1 1300.27 1818.2 1307.81 1815.49 1311.57C1814.57 1312.85 1813.23 1313.82 1811.67 1314.07L1689.14 1333.87C1687.29 1334.17 1685.41 1333.39 1683.99 1332.16C1681.55 1330.05 1677.05 1327.24 1670.67 1327.7C1663.9 1328.19 1659.49 1331.86 1657.33 1334.2C1656.26 1335.36 1654.84 1336.23 1653.27 1336.36L1509.08 1348.08C1506.85 1348.26 1504.77 1346.94 1503.98 1344.84C1502.94 1342.06 1501.6 1338.47 1501.18 1337.42C1500.46 1335.62 1501.54 1362.96 1512.13 1363.14C1521.44 1363.14 1617.37 1363.42 1640.4 1363.49C1643.16 1363.49 1645.44 1365.74 1646.01 1368.44C1646.53 1370.9 1647.46 1374.15 1649.13 1377.89C1652.9 1386.35 1662.59 1394.44 1668.52 1394.44C1671.99 1394.55 1676.68 1391.14 1679.98 1388.3C1682.21 1386.38 1685.64 1386.45 1687.59 1388.65L1687.98 1389.1C1688.96 1390.2 1690.38 1390.82 1691.86 1390.78L1712.08 1390.23C1714.26 1390.17 1716.1 1391.7 1717.7 1393.18C1718.37 1393.8 1719.21 1394.26 1720.23 1394.26C1720.79 1394.26 1721.26 1394.11 1721.64 1393.86C1722.39 1393.38 1723.07 1392.74 1723.76 1392.1C1725.07 1390.88 1726.37 1389.66 1728.09 1389.6L1778.69 1387.78C1781.35 1387.68 1783.52 1389.76 1784.64 1392.18C1785.46 1393.94 1786.81 1395.51 1789 1395.34C1791.16 1395.34 1792.36 1393.73 1793.02 1391.95C1793.96 1389.44 1795.96 1387.16 1798.64 1387.05L1806.49 1386.72C1809.09 1386.61 1811.13 1388.76 1812.83 1390.73C1813.55 1391.56 1814.55 1392.17 1815.93 1392.11C1819.35 1391.93 1821.68 1386.89 1821.68 1381.49C1821.57 1378.29 1821.46 1371.98 1821.39 1367.57C1821.35 1364.91 1823.45 1362.7 1826.11 1362.61C1828.72 1362.51 1830.61 1364.77 1832.32 1366.8C1832.43 1366.94 1832.54 1367.07 1832.66 1367.21C1833.23 1367.89 1834.03 1368.36 1835.15 1368.36C1836.94 1368.36 1838.17 1367.03 1838.99 1365.57C1840.13 1363.55 1841.98 1361.81 1844.3 1361.71L1867.37 1360.73C1868.72 1360.67 1869.88 1361.7 1869.97 1363.05C1870.07 1364.47 1868.96 1365.69 1867.54 1365.72L1858.19 1365.94C1856.1 1365.99 1854.27 1367.33 1853.73 1369.35C1852.82 1372.74 1851.6 1378.31 1851.49 1384.01C1851.31 1393.18 1852.56 1405.06 1860.64 1405.42C1868.69 1405.78 1945.4 1409.16 1946.11 1409.2C1946.13 1409.2 1946.1 1409.2 1946.12 1409.2C1946.82 1409.24 1983.86 1411.36 1988.13 1411.53C1992.44 1411.71 1995.85 1410.28 1995.85 1408.48C1995.85 1406.8 1995.53 1394.47 1995.49 1392.83C1995.49 1392.74 1995.49 1392.66 1995.48 1392.58C1995.48 1392.54 1995.47 1392.5 1995.47 1392.46C1995.31 1390.63 1995.35 1387.61 1996.56 1387.61H2004.32C2004.76 1387.61 2005.18 1387.72 2005.41 1388.09C2005.49 1388.22 2005.56 1388.4 2005.58 1388.54C2005.95 1390.84 2006.62 1400.78 2006.62 1406.86C2006.58 1408.25 2006.57 1409.73 2006.55 1411.17C2006.54 1412.83 2006.52 1414.45 2006.47 1415.87C2006.36 1418.62 2003.18 1420.94 2000.43 1421.12C1996.6 1421.36 1991.44 1421.58 1988.23 1421.71C1987.47 1421.74 1986.82 1421.77 1986.33 1421.79C1982.22 1421.97 1947.1 1426.43 1946.83 1426.47C1946.82 1426.47 1946.84 1426.47 1946.83 1426.47C1946.55 1426.5 1871.59 1435.64 1869.62 1436C1867.65 1436.36 1867.82 1439.78 1869.62 1439.78C1869.92 1439.78 1871.58 1439.88 1874.3 1440.05C1888.14 1440.89 1929.25 1443.41 1955.81 1442.66C1983.07 1441.74 2016.61 1440.55 2025.87 1440.23C2027.44 1440.17 2028.93 1440.85 2029.95 1442.04C2033.81 1446.48 2043.86 1457.39 2052.09 1460.4C2051.37 1460.9 2051.14 1461.19 2052.15 1461.19H2055.94C2055.96 1461.19 2055.98 1461.19 2056 1461.19H2060.2C2061.22 1461.19 2060.98 1460.9 2060.26 1460.4C2068.49 1457.39 2078.55 1446.48 2082.4 1442.04C2083.43 1440.85 2084.91 1440.17 2086.48 1440.23C2095.74 1440.55 2129.28 1441.74 2156.55 1442.66C2183.11 1443.41 2224.22 1440.89 2238.05 1440.05C2240.77 1439.88 2242.44 1439.78 2242.73 1439.78C2244.53 1439.78 2244.71 1436.36 2242.73 1436C2240.76 1435.64 2165.8 1426.5 2165.53 1426.47L2165.52 1426.47Z" fill="#0D2C99"/>
<path d="M2058 653C1693.5 653 1398 948.5 1398 1313C1398 1677.5 1693.5 1973 2058 1973C2111.4 1973 2163.3 1966.7 2213 1954.7C2206.9 1938.6 2201.8 1921.9 2198 1904.8C2153 1915.4 2106.2 1921 2058 1921C1722.2 1921 1450 1648.8 1450 1313C1450 977.2 1722.2 705 2058 705C2393.8 705 2666 977.2 2666 1313C2666 1364.5 2659.6 1414.6 2647.5 1462.4C2664.5 1466.5 2681.1 1471.8 2697.1 1478.2C2710.8 1425.4 2718 1370 2718 1313C2718 948.5 2422.5 653 2058 653Z" fill="#0D2C99"/>
</svg>
